<svg width="40" height="40" viewBox="0 0 40 40" fill="none" xmlns="http://www.w3.org/2000/svg">
<rect width="40" height="40" rx="3" fill="#008080"/>
<path d="M5.08 10.976L9.848 10.208V15.168H15.576V19.136H9.848V25.056C9.848 26.0587 10.0187 26.8587 10.36 27.456C10.7227 28.0533 11.4373 28.352 12.504 28.352C13.016 28.352 13.5387 28.3093 14.072 28.224C14.6267 28.1173 15.128 27.9787 15.576 27.808L16.248 31.52C15.672 31.7547 15.032 31.9573 14.328 32.128C13.624 32.2987 12.76 32.384 11.736 32.384C10.4347 32.384 9.35733 32.2133 8.504 31.872C7.65067 31.5093 6.968 31.0187 6.456 30.4C5.944 29.76 5.58133 28.992 5.368 28.096C5.176 27.2 5.08 26.208 5.08 25.12V10.976ZM24.2268 21.248C24.6961 20.736 25.1761 20.2027 25.6667 19.648C26.1788 19.0933 26.6694 18.5493 27.1388 18.016C27.6081 17.4613 28.0454 16.9387 28.4508 16.448C28.8774 15.9573 29.2401 15.5307 29.5388 15.168H35.2028C34.0721 16.4693 32.9628 17.7173 31.8748 18.912C30.8081 20.0853 29.6348 21.3013 28.3548 22.56C28.9948 23.136 29.6561 23.8293 30.3388 24.64C31.0214 25.4293 31.6828 26.2507 32.3228 27.104C32.9628 27.9573 33.5494 28.8107 34.0828 29.664C34.6161 30.5173 35.0641 31.296 35.4268 32H29.9548C29.6134 31.4453 29.2188 30.8373 28.7708 30.176C28.3441 29.4933 27.8854 28.8213 27.3948 28.16C26.9041 27.4773 26.3814 26.8267 25.8268 26.208C25.2934 25.5893 24.7601 25.0667 24.2268 24.64V32H19.4588V7.936L24.2268 7.168V21.248Z" fill="#FFEEEB"/>
</svg>
